<svg width="360" height="260" viewBox="0 0 360 260" fill="none" xmlns="http://www.w3.org/2000/svg">
<path d="M360 259.453C360 259.534 279.397 259.696 180 259.696C80.522 259.696 0 259.615 0 259.453C0 259.372 80.6031 259.21 180 259.21C279.397 259.21 360 259.291 360 259.453Z" fill="#263238"/>
<path d="M128.954 158.193H103.842C102.303 158.193 101.088 156.978 101.088 155.439C101.088 153.9 102.303 152.685 103.842 152.685H128.954C130.494 152.685 131.709 153.9 131.709 155.439C131.79 156.897 130.494 158.193 128.954 158.193Z" fill="#263238"/>
<path d="M133.005 249.408H89.3415C85.2911 249.408 82.0508 246.168 82.0508 242.117V163.864C82.0508 159.813 85.2911 156.573 89.3415 156.573H133.005C137.055 156.573 140.296 159.813 140.296 163.864V242.117C140.296 246.168 137.055 249.408 133.005 249.408Z" fill="#5591D7"/>
<path d="M146.857 249.408H103.113C99.0625 249.408 95.8221 246.168 95.8221 242.117V163.864C95.8221 159.813 99.0625 156.573 103.113 156.573H146.776C150.827 156.573 154.067 159.813 154.067 163.864V242.117C154.067 246.168 150.827 249.408 146.857 249.408Z" fill="#5591D7"/>
<path d="M153.581 233.855C153.581 233.936 140.62 234.098 124.58 234.098C108.541 234.098 95.5793 234.017 95.5793 233.855C95.5793 233.774 108.541 233.612 124.58 233.612C140.62 233.693 153.581 233.774 153.581 233.855Z" fill="#263238"/>
<path d="M153.581 221.136C153.581 221.217 140.62 221.379 124.58 221.379C108.541 221.379 95.5793 221.298 95.5793 221.136C95.5793 221.055 108.541 220.893 124.58 220.893C140.62 220.893 153.581 220.974 153.581 221.136Z" fill="#263238"/>
<path d="M153.581 208.337C153.581 208.418 140.62 208.58 124.58 208.58C108.541 208.58 95.5793 208.499 95.5793 208.337C95.5793 208.256 108.541 208.094 124.58 208.094C140.62 208.094 153.581 208.175 153.581 208.337Z" fill="#263238"/>
<path d="M153.581 195.538C153.581 195.619 140.62 195.781 124.58 195.781C108.541 195.781 95.5793 195.7 95.5793 195.538C95.5793 195.376 108.541 195.295 124.58 195.295C140.62 195.295 153.581 195.457 153.581 195.538Z" fill="#263238"/>
<path d="M153.581 182.739C153.581 182.82 140.62 182.982 124.58 182.982C108.541 182.982 95.5793 182.901 95.5793 182.739C95.5793 182.658 108.541 182.496 124.58 182.496C140.62 182.577 153.581 182.658 153.581 182.739Z" fill="#263238"/>
<path d="M153.581 169.939C153.581 170.02 140.62 170.182 124.58 170.182C108.541 170.182 95.5793 170.101 95.5793 169.939C95.5793 169.858 108.541 169.696 124.58 169.696C140.62 169.777 153.581 169.858 153.581 169.939Z" fill="#263238"/>
<path d="M144.427 254.431C144.427 257.185 142.159 259.453 139.405 259.453C136.65 259.453 134.382 257.185 134.382 254.431C134.382 251.676 136.65 249.408 139.405 249.408C142.159 249.408 144.427 251.676 144.427 254.431Z" fill="#263238"/>
<path d="M147.91 254.431C147.91 257.185 145.642 259.453 142.888 259.453C140.134 259.453 137.865 257.185 137.865 254.431C137.865 251.676 140.134 249.408 142.888 249.408C145.723 249.408 147.91 251.676 147.91 254.431Z" fill="#455A64"/>
<path d="M104.49 254.431C104.49 257.185 102.222 259.453 99.4673 259.453C96.7131 259.453 94.4448 257.185 94.4448 254.431C94.4448 251.676 96.7131 249.408 99.4673 249.408C102.222 249.408 104.49 251.676 104.49 254.431Z" fill="#263238"/>
<path d="M107.973 254.431C107.973 257.185 105.705 259.453 102.95 259.453C100.196 259.453 97.928 257.185 97.928 254.431C97.928 251.676 100.196 249.408 102.95 249.408C105.705 249.408 107.973 251.676 107.973 254.431Z" fill="#455A64"/>
<path d="M88.6122 215.871C86.9111 215.871 85.5339 214.494 85.5339 212.793V185.898C85.5339 184.197 86.9111 182.82 88.6122 182.82C90.3134 182.82 91.6905 184.197 91.6905 185.898V212.793C91.6905 214.494 90.3134 215.871 88.6122 215.871Z" fill="#263238"/>
<path d="M89.8276 248.598C89.8276 248.598 89.7466 248.517 89.6656 248.436C89.5036 248.355 89.3416 248.193 89.0986 247.95C88.6935 247.464 87.9645 246.816 87.3974 245.763C86.1013 243.657 85.3722 240.092 85.3722 235.718C85.5342 227.05 85.8582 215.061 86.1823 201.856C86.5873 188.652 86.9113 176.663 87.1544 167.995C87.2354 165.808 87.2354 163.864 87.6404 162.163C88.0455 160.461 88.7745 159.084 89.5846 158.193C90.3947 157.302 91.2858 156.816 91.9338 156.654C92.5819 156.411 92.9059 156.411 92.9059 156.411C92.9059 156.411 92.5819 156.492 92.0149 156.735C91.4478 156.978 90.5567 157.464 89.8276 158.355C89.0176 159.246 88.2885 160.542 87.9644 162.244C87.5594 163.945 87.5594 165.889 87.5594 168.076C87.3164 176.744 87.0734 188.733 86.6683 201.937C86.2633 215.142 85.9392 227.131 85.6962 235.799C85.6152 240.092 86.3443 243.657 87.5594 245.763C88.6125 247.788 89.8276 248.517 89.8276 248.598Z" fill="#263238"/>
<path d="M187.498 94.6018L176.4 101.812L175.428 112.991C175.428 112.991 178.668 114.53 183.448 110.155C188.227 105.781 194.465 97.0321 194.465 97.0321L187.498 94.6018Z" fill="#AA6550"/>
<path d="M187.012 99.2193L183.367 80.8304L173.727 84.6378L176.157 108.859L187.012 99.2193Z" fill="#AA6550"/>
<path d="M213.178 75.97C213.016 75.5649 212.692 75.3219 212.287 75.2409L205.32 73.8638C204.672 73.7827 204.105 73.9448 203.619 74.2688L182.638 90.7944L183.529 91.7665L190.982 94.0348L213.34 76.294L213.178 75.97Z" fill="#263238"/>
<path d="M207.588 77.1041C207.669 77.2661 207.993 77.3471 208.155 77.1851C208.398 77.0231 208.479 76.78 208.398 76.618C208.317 76.456 207.993 76.375 207.831 76.537C207.669 76.699 207.507 76.9421 207.588 77.1041Z" fill="white"/>
<path d="M213.34 76.294C213.34 76.294 212.854 76.294 211.963 76.132C210.991 75.97 209.776 75.7269 208.236 75.4839C207.426 75.3219 206.616 75.1599 205.644 74.9979C205.239 74.9169 204.753 74.9979 204.429 75.2409C204.024 75.5649 203.619 75.889 203.214 76.213C201.594 77.5091 199.731 78.9673 197.867 80.4254C194.06 83.4227 190.577 86.096 188.065 88.0402C186.85 88.9313 185.797 89.7414 185.068 90.3084C184.339 90.8755 183.934 91.1185 183.934 91.1185C183.934 91.1185 184.258 90.7945 184.987 90.2274C185.716 89.6603 186.688 88.8503 187.903 87.8782C190.415 85.853 193.817 83.1797 197.624 80.1824C199.569 78.7242 201.351 77.2661 202.971 75.97C203.376 75.6459 203.781 75.3219 204.186 74.9979C204.591 74.6738 205.239 74.5928 205.725 74.6738C206.616 74.8359 207.507 74.9979 208.236 75.1599C209.776 75.4839 210.991 75.7269 211.882 75.97C212.854 76.132 213.34 76.294 213.34 76.294Z" fill="#455A64"/>
<path d="M203.376 81.3975C203.376 81.3975 202.809 81.0735 201.918 82.6126C201.027 84.1518 198.434 88.4452 198.434 88.4452L195.923 85.772L191.873 84.9619C191.873 84.9619 190.739 85.4479 191.225 86.096C191.711 86.7441 193.979 88.0402 193.979 88.0402L194.87 91.2805L190.496 86.9871C190.496 86.9871 188.632 86.8251 188.794 88.0402C188.956 89.2553 191.306 93.7918 191.306 93.7918L188.794 92.7387L186.364 89.8224C186.364 89.8224 185.392 89.5793 185.473 90.4704C185.554 91.3615 187.741 95.4119 187.741 95.4119L190.982 98.6522C190.982 98.6522 193.169 99.2193 193.574 98.6522C193.979 98.0852 194.384 97.1941 194.384 97.1941C194.384 97.1941 195.599 97.2751 196.004 96.7891C196.409 96.303 196.571 95.4119 196.571 95.4119C196.571 95.4119 198.272 96.303 198.758 95.4119C199.325 94.5208 199.811 92.4956 199.893 91.6856C199.974 90.8755 203.295 84.1518 203.295 83.9088C203.376 83.4227 204.672 81.3165 203.376 81.3975Z" fill="#AA6550"/>
<path d="M193.817 98.4902C193.817 98.5712 193.412 98.5712 192.683 98.4902C192.035 98.4092 191.063 98.0852 190.172 97.5181C189.281 96.9511 188.552 96.222 188.147 95.655C187.742 95.0879 187.58 94.6829 187.661 94.6829C187.742 94.6019 188.633 96.06 190.415 97.1941C192.116 98.2472 193.817 98.4092 193.817 98.4902Z" fill="#EB996E"/>
<path d="M193.412 96.7891C193.331 96.8701 192.764 96.222 192.197 95.412C191.63 94.5209 191.387 93.7918 191.468 93.7108C191.549 93.6298 192.035 94.3589 192.521 95.1689C193.088 96.06 193.493 96.7081 193.412 96.7891Z" fill="#EB996E"/>
<path d="M196.571 94.1158C196.49 94.1968 195.923 93.6298 195.437 92.7387C194.951 91.8476 194.789 91.0375 194.87 91.0375C194.951 90.9565 195.356 91.6856 195.761 92.5766C196.247 93.3867 196.652 94.0348 196.571 94.1158Z" fill="#EB996E"/>
<path d="M199.65 92.1716C199.488 92.1716 199.407 91.2805 199.002 90.3084C198.678 89.3363 198.272 88.5262 198.353 88.4452C198.435 88.3642 199.083 89.0933 199.407 90.1464C199.812 91.1995 199.731 92.1716 199.65 92.1716Z" fill="#EB996E"/>
<path d="M150.721 7.76114C151.693 3.79174 155.338 0.632425 159.388 0.0653684C163.439 -0.42068 167.732 1.84755 169.676 5.41191C171.459 8.81425 171.459 13.3507 174.456 15.8619C176.481 17.5631 179.478 17.7251 181.504 19.4263C185.797 23.0717 183.286 31.2535 187.822 34.6558C184.987 36.924 181.666 38.5442 178.101 39.3543C177.858 38.1392 177.21 37.0051 176.319 36.114C177.048 38.1392 175.914 40.5694 174.213 41.8656C172.431 43.1617 170.243 43.6477 168.056 44.0528C162.872 45.0249 157.444 45.5109 152.26 44.3768C147.075 43.2427 142.134 40.2454 139.703 35.4659C139.055 34.2508 138.569 32.9547 137.597 32.0636C136.544 31.0915 135.005 30.7674 133.709 30.2004C130.063 28.5802 127.633 24.5298 127.795 20.5604C131.198 20.3174 133.547 17.0771 134.924 13.9178C136.301 10.7584 137.435 7.19408 140.27 5.24989C142.134 3.95376 144.645 3.54872 146.832 4.19679C149.019 4.84485 150.802 6.62703 151.612 8.73324" fill="#263238"/>
<path d="M142.62 15.2949L142.458 12.3786L159.712 8.57121C165.059 7.84213 170.972 13.0267 171.459 18.3732C172.026 24.2868 172.431 31.5775 171.864 36.033C170.729 45.0249 163.925 46.402 163.925 46.402L164.168 57.3381L144.402 56.609L142.62 15.2949Z" fill="#AA6550"/>
<path d="M169.109 25.0159C169.109 25.5829 168.704 26.15 168.056 26.231C167.408 26.312 166.922 25.826 166.841 25.2589C166.841 24.6918 167.246 24.1248 167.894 24.0438C168.461 23.9628 169.028 24.3678 169.109 25.0159Z" fill="#263238"/>
<path d="M169.676 22.1806C169.514 22.3426 168.623 21.6946 167.408 21.7756C166.193 21.7756 165.302 22.4236 165.14 22.3426C165.059 22.2616 165.221 22.0186 165.626 21.6946C166.031 21.3705 166.679 21.1275 167.408 21.0465C168.137 21.0465 168.866 21.2895 169.19 21.5326C169.595 21.8566 169.757 22.0996 169.676 22.1806Z" fill="#263238"/>
<path d="M157.606 25.5019C157.606 26.069 157.201 26.636 156.553 26.717C155.905 26.798 155.419 26.312 155.338 25.7449C155.338 25.1779 155.743 24.6108 156.391 24.5298C157.039 24.4488 157.525 24.9349 157.606 25.5019Z" fill="#263238"/>
<path d="M157.525 22.8286C157.363 22.9907 156.472 22.3426 155.257 22.4236C154.042 22.4236 153.151 23.0717 152.989 22.9907C152.908 22.9096 153.07 22.6666 153.475 22.3426C153.88 22.0186 154.528 21.7755 155.257 21.6945C155.986 21.6945 156.715 21.9375 157.039 22.1806C157.525 22.5046 157.606 22.7476 157.525 22.8286Z" fill="#263238"/>
<path d="M162.305 31.8206C162.305 31.7396 163.034 31.5775 164.33 31.4155C164.654 31.3345 164.978 31.3345 164.978 31.0915C165.059 30.8485 164.897 30.5244 164.735 30.2004C164.411 29.4713 164.087 28.6613 163.763 27.8512C162.386 24.4488 161.332 21.6946 161.495 21.6136C161.657 21.5326 162.872 24.2868 164.249 27.6082C164.573 28.4182 164.897 29.2283 165.221 29.9574C165.383 30.2814 165.545 30.6865 165.383 31.1725C165.302 31.4155 165.059 31.5776 164.897 31.6586C164.735 31.7396 164.492 31.7396 164.33 31.7396C163.115 31.9016 162.305 31.9016 162.305 31.8206Z" fill="#263238"/>
<path d="M163.925 46.402C163.925 46.402 157.606 46.9691 151.531 43.5667C151.531 43.5667 154.771 49.7233 164.006 48.5892L163.925 46.402Z" fill="#AA6550"/>
<path d="M161.9 34.8178C161.414 34.2508 160.685 33.9267 159.875 34.0888C159.307 34.1698 158.821 34.4128 158.497 34.8988C158.173 35.3849 158.173 35.952 158.416 36.357C158.74 36.843 159.47 36.924 160.037 36.681C160.604 36.519 161.09 36.114 161.576 35.7089C161.738 35.6279 161.819 35.4659 161.9 35.3039C162.062 35.1419 162.062 34.9799 161.9 34.8178Z" fill="#AA6550"/>
<path d="M158.74 32.7927C158.902 32.7927 158.983 34.0888 160.198 35.0609C161.332 35.952 162.791 35.79 162.791 35.952C162.791 36.033 162.466 36.195 161.899 36.276C161.332 36.276 160.441 36.114 159.712 35.6279C158.983 35.0609 158.659 34.3318 158.578 33.7648C158.497 33.1167 158.659 32.7927 158.74 32.7927Z" fill="#263238"/>
<path d="M157.768 19.3453C157.687 19.6693 156.391 19.5883 155.014 19.7503C153.556 19.9123 152.422 20.3984 152.179 20.0744C152.098 19.9123 152.26 19.5883 152.746 19.2643C153.232 18.9402 153.961 18.6162 154.771 18.4542C155.662 18.2922 156.472 18.4542 156.958 18.6162C157.525 18.9403 157.768 19.1833 157.768 19.3453Z" fill="#263238"/>
<path d="M169.514 17.9682C169.271 18.2922 168.461 17.9682 167.408 18.0492C166.355 18.0492 165.545 18.2922 165.302 18.0492C165.221 17.8872 165.302 17.6441 165.707 17.3201C166.031 17.0771 166.679 16.834 167.408 16.834C168.137 16.834 168.704 17.0771 169.109 17.3201C169.433 17.5631 169.595 17.8062 169.514 17.9682Z" fill="#263238"/>
<path d="M159.388 8.97627C159.226 12.7026 156.553 16.186 152.908 17.4011C151.449 17.8872 149.667 18.2112 149.181 19.5883C148.695 21.0465 150.072 22.4236 150.72 23.8008C151.53 25.5019 151.125 27.7702 149.829 29.0663C149.1 29.8764 148.047 30.3624 147.318 31.1725C146.346 32.2256 146.022 33.7648 146.346 35.2229C146.589 36.6 147.399 37.8962 148.452 38.8683C145.05 39.0303 141.404 37.3291 140.27 34.1698C139.622 32.2256 139.946 30.2004 140.189 28.1752C140.756 23.6387 140.999 19.0213 140.756 14.4038C140.756 13.5937 140.675 12.7837 141.161 12.1356C141.566 11.4875 142.377 11.2445 143.106 11.0015C147.885 9.54333 152.746 8.32821 157.687 7.51813" fill="#263238"/>
<path d="M157.444 7.68012C158.416 9.38129 159.307 11.1635 160.766 12.4596C162.224 13.8367 164.168 14.7278 166.112 14.3228C165.788 13.7557 165.383 13.1887 165.059 12.5406C167.813 15.3759 171.054 17.5631 174.699 19.0213C172.917 15.6999 171.054 12.2166 168.218 9.70532C165.383 7.19407 161.252 5.73593 157.687 7.11306" fill="#263238"/>
<path d="M165.302 53.7737L143.268 52.0726L146.913 63.7377L165.788 70.0564L168.299 65.7629L165.302 53.7737Z" fill="#AA6550"/>
<path d="M123.502 72.7297C118.236 71.0285 112.242 71.8386 107.624 74.8359C103.007 77.8332 99.8474 83.0177 99.1993 88.5262C98.6323 93.8728 100.333 99.3003 99.4423 104.647C98.7943 108.535 96.6881 112.1 95.797 115.907C93.8528 124.251 97.7412 133.405 104.708 138.346C111.675 143.288 121.153 144.098 129.172 141.263L137.435 128.301L131.927 78.4812L123.502 72.7297Z" fill="#455A64"/>
<path d="M136.706 107.968C136.706 107.968 134.843 118.094 135.977 119.633C137.111 121.172 138.974 121.334 138.974 121.334L175.509 118.499L176.724 98.4092C176.724 98.4092 180.369 84.6378 178.749 78.8052C177.048 72.9727 169.757 55.0699 169.757 55.0699L164.168 53.3687C164.168 53.3687 164.168 59.2013 162.143 59.6063C160.036 60.0114 150.153 60.0114 145.293 53.7737L143.43 52.0726L132.98 59.6873L137.759 100.839L136.706 107.968Z" fill="#505FE8"/>
<path d="M120.18 72.0006C120.18 72.0006 126.985 61.7936 129.739 58.8773C134.033 54.3408 140.108 52.4776 141.486 53.3687C143.511 54.5028 153.394 64.8719 154.204 71.8386C155.014 78.8053 154.204 96.141 154.204 96.141L145.779 98.6522L145.698 90.3084L144.321 69.7324C144.321 69.7324 140.837 60.0114 132.818 59.6874C132.818 59.6874 124.393 66.7351 124.069 73.6208L120.18 72.0006Z" fill="#455A64"/>
<path d="M139.784 110.56L122.935 125.952L127.39 131.866C127.39 131.866 147.885 118.823 149.991 105.781L139.784 110.56Z" fill="#455A64"/>
<path d="M118.479 142.802C118.479 142.802 117.507 142.316 116.049 141.1C114.591 139.885 112.647 137.86 111.026 134.863C110.216 133.324 109.568 131.623 109.082 129.597C108.677 127.653 108.434 125.466 108.434 123.198C108.353 118.661 109.082 113.801 109.973 108.697C110.864 103.594 111.593 98.7332 111.674 94.2778C111.674 92.0096 111.512 89.9033 111.188 87.9592C110.864 86.015 110.459 84.1518 110.216 82.4506C109.973 80.7494 109.973 79.2103 110.216 77.8331C110.459 76.456 110.864 75.4029 111.35 74.5118C111.836 73.7017 112.323 73.1347 112.728 72.8106C113.133 72.4866 113.295 72.3246 113.295 72.3246C113.376 72.4056 112.404 72.9727 111.512 74.5928C111.107 75.4029 110.702 76.537 110.459 77.8331C110.297 79.1293 110.297 80.6684 110.54 82.3696C110.783 84.0708 111.188 85.8529 111.512 87.7971C111.836 89.7413 111.998 91.9285 111.998 94.1968C111.998 98.7332 111.188 103.594 110.297 108.697C109.406 113.801 108.677 118.661 108.758 123.198C108.758 125.466 109.001 127.572 109.406 129.516C109.811 131.461 110.459 133.162 111.269 134.701C112.809 137.698 114.672 139.723 116.13 141.019C116.454 141.344 116.778 141.587 117.102 141.83C117.345 142.073 117.669 142.235 117.831 142.397C117.993 142.559 118.155 142.64 118.317 142.721C118.398 142.721 118.479 142.802 118.479 142.802Z" fill="#263238"/>
<path d="M110.621 103.999C110.621 104.08 108.029 104.242 104.789 104.242C101.548 104.242 98.9562 104.161 98.9562 103.999C98.9562 103.837 101.548 103.756 104.789 103.756C108.029 103.837 110.621 103.918 110.621 103.999Z" fill="#263238"/>
<path d="M169.677 55.0699C169.677 55.0699 176.238 57.9862 178.506 61.7125C180.775 65.4389 186.85 86.663 186.85 86.663L178.263 88.3642L169.677 55.0699Z" fill="#505FE8"/>
<path d="M174.456 85.7719C174.456 85.7719 172.512 66.33 171.621 65.1149C170.811 63.8187 169.434 54.4218 165.302 53.7737C165.302 53.7737 169.758 54.8269 172.269 56.447C174.78 58.0672 177.615 66.8971 177.615 66.8971L179.236 82.2886L174.456 85.7719Z" fill="#455A64"/>
<path d="M122.125 68.7603C122.044 68.8413 121.801 68.1122 120.91 67.5451C120.424 67.3021 119.857 67.0591 119.209 66.9781C118.56 66.9781 117.75 67.1401 117.021 67.5451C115.563 68.3552 114.834 69.7324 114.348 70.7045C113.943 71.6766 113.7 72.3246 113.7 72.3246C113.619 72.3246 113.7 71.5955 114.105 70.5424C114.51 69.4893 115.239 68.0312 116.859 67.1401C117.588 66.7351 118.479 66.492 119.209 66.573C119.938 66.6541 120.667 66.8971 121.072 67.2211C121.963 67.9502 122.125 68.7603 122.125 68.7603Z" fill="#263238"/>
<path d="M144.321 69.7324C144.321 69.7324 144.078 69.3273 143.835 68.5983C143.754 68.4362 143.673 68.1932 143.592 68.0312C143.511 67.7882 143.349 67.6262 143.187 67.3831C143.025 67.1401 142.944 66.8971 142.782 66.573C142.62 66.33 142.377 66.006 142.215 65.763C141.405 64.6289 140.271 63.2517 138.65 62.1986C137.111 61.0645 135.086 60.1734 132.818 59.9304C131.36 59.7684 129.821 60.4164 128.443 61.3075H128.524C128.443 61.3885 128.443 61.4695 128.362 61.4695C124.555 65.925 121.639 70.2994 119.695 73.6208C118.722 75.2409 117.993 76.618 117.426 77.5901C117.183 77.9952 117.021 78.4002 116.859 78.6433C116.697 78.8863 116.616 79.0483 116.616 79.0483C116.616 79.0483 116.616 78.8863 116.778 78.6433C116.859 78.4002 117.021 77.9952 117.264 77.5091C117.75 76.537 118.479 75.1599 119.37 73.4587C121.234 70.1374 124.15 65.682 127.957 61.1455C128.038 61.0645 128.038 60.9835 128.119 60.9835C128.848 60.4974 129.578 60.1734 130.388 59.8494C131.198 59.6063 132.008 59.4443 132.818 59.5253C135.167 59.7684 137.273 60.7405 138.812 61.8746C140.433 63.0087 141.567 64.3858 142.377 65.601C142.539 65.925 142.782 66.168 142.944 66.492C143.106 66.8161 143.187 67.0591 143.349 67.3021C143.511 67.5451 143.592 67.7882 143.673 68.0312C143.754 68.2742 143.835 68.4362 143.916 68.6793C144.24 69.3273 144.402 69.7324 144.321 69.7324Z" fill="#263238"/>
<path d="M137.273 118.013C137.273 118.094 136.625 118.661 135.329 119.471C134.114 120.281 132.251 121.335 130.144 122.226C128.038 123.117 126.013 123.684 124.555 124.008C123.097 124.332 122.125 124.413 122.125 124.413C122.125 124.332 123.016 124.17 124.474 123.765C125.932 123.36 127.876 122.712 129.982 121.902C132.089 121.011 133.871 120.038 135.167 119.309C136.463 118.499 137.192 117.932 137.273 118.013Z" fill="#263238"/>
<path d="M234.321 202.91L229.217 252.73L213.502 252.487L212.367 199.912L234.321 202.91Z" fill="#AA6550"/>
<path d="M229.622 247.95V249.003C229.622 249.003 247.282 256.132 247.444 259.453L212.367 259.21L212.934 247.545C218.119 249.975 223.627 250.299 229.622 247.95Z" fill="#455A64"/>
<g opacity="0.6">
<g opacity="0.6">
<g opacity="0.6">
<g opacity="0.6">
<g opacity="0.6">
<g opacity="0.6">
<g opacity="0.6">
<g opacity="0.6">
<path opacity="0.6" d="M216.499 251.352C215.851 251.514 215.365 252.325 215.527 252.973C215.689 253.621 216.418 254.188 217.147 253.945C217.795 253.783 218.443 252.892 218.2 252.244C217.957 251.596 217.066 251.028 216.418 251.352" fill="white"/>
</g>
</g>
</g>
</g>
</g>
</g>
</g>
</g>
<g opacity="0.6">
<g opacity="0.6">
<g opacity="0.6">
<g opacity="0.6">
<g opacity="0.6">
<g opacity="0.6">
<g opacity="0.6">
<path opacity="0.6" d="M212.367 259.21L212.529 256.375L246.067 257.671C246.067 257.671 247.606 258.4 247.444 259.453L212.367 259.21Z" fill="white"/>
</g>
</g>
</g>
</g>
</g>
</g>
</g>
<path d="M229.784 249.084C229.784 249.246 228.893 249.327 228.083 249.894C227.192 250.38 226.787 251.19 226.625 251.109C226.463 251.109 226.706 250.056 227.759 249.408C228.731 248.76 229.784 248.922 229.784 249.084Z" fill="#263238"/>
<path d="M233.429 250.623C233.429 250.785 232.7 251.109 232.133 251.758C231.485 252.487 231.404 253.216 231.242 253.216C231.08 253.216 230.999 252.244 231.728 251.352C232.376 250.542 233.429 250.461 233.429 250.623Z" fill="#263238"/>
<path d="M235.455 255.079C235.293 255.079 235.05 254.269 235.536 253.297C235.941 252.325 236.751 252.001 236.832 252.163C236.913 252.325 236.427 252.811 236.022 253.54C235.698 254.35 235.617 255.079 235.455 255.079Z" fill="#263238"/>
<path d="M238.938 215.466L262.755 242.604L251.575 253.54L223.304 228.832L238.938 215.466Z" fill="#AA6550"/>
<path d="M259.676 238.877L260.405 239.606C260.405 239.606 277.903 232.154 280.414 234.341L255.545 259.048L247.687 250.461C253.034 248.517 257.165 244.872 259.676 238.877Z" fill="#455A64"/>
<g opacity="0.6">
<g opacity="0.6">
<g opacity="0.6">
<g opacity="0.6">
<g opacity="0.6">
<g opacity="0.6">
<g opacity="0.6">
<g opacity="0.6">
<path opacity="0.6" d="M252.791 250.623C252.467 251.271 252.629 252.082 253.277 252.487C253.844 252.892 254.735 252.649 255.14 252.082C255.464 251.515 255.302 250.461 254.654 250.137C254.006 249.813 252.953 250.137 252.791 250.785" fill="white"/>
</g>
</g>
</g>
</g>
</g>
</g>
</g>
</g>
<g opacity="0.6">
<g opacity="0.6">
<g opacity="0.6">
<g opacity="0.6">
<g opacity="0.6">
<g opacity="0.6">
<g opacity="0.6">
<path opacity="0.6" d="M255.545 259.048L253.682 256.942L278.227 234.017C278.227 234.017 279.847 233.369 280.495 234.341L255.545 259.048Z" fill="white"/>
</g>
</g>
</g>
</g>
</g>
</g>
</g>
<path d="M260.567 239.606C260.648 239.768 260.162 240.416 259.919 241.389C259.676 242.361 259.919 243.171 259.757 243.252C259.595 243.333 259.109 242.442 259.352 241.227C259.676 240.092 260.486 239.525 260.567 239.606Z" fill="#263238"/>
<path d="M264.294 238.148C264.456 238.229 264.132 238.958 264.213 239.93C264.294 240.821 264.699 241.551 264.618 241.632C264.537 241.794 263.727 241.146 263.646 240.011C263.484 238.796 264.132 237.986 264.294 238.148Z" fill="#263238"/>
<path d="M268.83 239.768C268.749 239.93 267.939 239.444 267.615 238.472C267.291 237.5 267.534 236.69 267.696 236.69C267.858 236.69 267.858 237.419 268.182 238.229C268.506 239.12 268.992 239.606 268.83 239.768Z" fill="#263238"/>
<path d="M137.516 60.2544C135.734 58.8773 133.222 58.9583 131.602 60.5784C128.605 63.5757 124.312 68.5982 124.15 72.6486C123.988 78.8863 122.934 95.3309 122.934 95.3309L145.779 94.5208C145.779 94.5208 145.779 72.6486 143.754 67.6261C142.619 64.7099 139.784 62.0366 137.516 60.2544Z" fill="#505FE8"/>
<path d="M125.608 95.2499C125.608 95.2499 124.312 107.806 125.77 113.558C127.228 119.552 130.225 119.471 132.736 119.633C135.248 119.795 174.456 99.2193 174.456 99.2193L170.081 91.5235L140.513 100.434L140.756 94.6828L125.608 95.2499Z" fill="#AA6550"/>
<path d="M169.839 91.6855L176.886 82.7746L183.286 81.3165L191.063 82.2076C191.063 82.2076 191.387 83.3417 190.091 83.9898L192.845 84.1518C192.845 84.1518 193.412 85.5289 191.792 86.177L193.736 86.501C193.736 86.501 192.845 88.5262 190.658 88.1212C188.47 87.7161 184.906 87.7161 184.906 87.7161L181.099 89.8223L186.769 89.5793L190.901 90.3894C190.901 90.3894 191.468 91.4425 190.496 91.6855C189.524 91.9286 185.959 91.6855 185.959 91.6855L180.532 93.1437C180.532 93.1437 179.398 96.627 178.669 97.4371C177.939 98.2472 174.051 99.2193 174.051 99.2193L169.839 91.6855Z" fill="#AA6550"/>
<path d="M192.926 84.1518C192.926 84.2328 192.116 84.1518 190.819 84.0708C189.523 83.9898 187.741 83.8278 185.716 83.5847C185.068 83.5037 184.42 83.4227 183.772 83.3417H183.853C182.395 83.7468 181.099 84.0708 180.207 84.3138C179.316 84.5568 178.749 84.6379 178.749 84.6379C178.749 84.5568 179.235 84.3948 180.126 84.0708C181.017 83.7468 182.314 83.3417 183.772 82.9367H183.853C184.42 83.0177 185.068 83.0987 185.797 83.0987C187.741 83.3417 189.604 83.5037 190.9 83.7468C192.116 83.9898 192.926 84.1518 192.926 84.1518Z" fill="#AA6550"/>
<path d="M193.331 86.501C193.331 86.582 192.602 86.501 191.386 86.339C190.171 86.177 188.551 86.015 186.769 85.6909C186.121 85.6099 185.554 85.5289 184.987 85.4479H185.068C182.475 86.42 180.612 87.1491 180.612 87.0681C180.612 86.9871 182.394 86.177 184.987 85.1239H185.068H185.149C185.716 85.2049 186.283 85.2859 186.931 85.3669C188.713 85.6099 190.333 85.8529 191.548 86.096C192.683 86.258 193.331 86.42 193.331 86.501Z" fill="#AA6550"/>
<path d="M174.132 99.2193C174.132 99.2193 174.375 99.1383 174.78 98.9763C175.185 98.8143 175.833 98.6523 176.562 98.4092C176.967 98.2472 177.372 98.0852 177.858 97.9232C178.101 97.8422 178.344 97.6802 178.506 97.5181C178.749 97.3561 178.83 97.1131 178.992 96.8701C179.559 95.817 179.964 94.5208 180.45 93.1437V93.0627H180.531C182.152 92.6577 184.015 92.1716 185.959 91.6045C186.85 91.6856 187.903 91.6856 188.875 91.6856C189.361 91.6856 189.928 91.6856 190.414 91.6045C190.657 91.5235 190.819 91.4425 190.819 91.1995C190.819 91.0375 190.819 90.7135 190.657 90.5514L190.819 90.6324C189.523 90.3894 188.146 90.1464 186.688 89.8224H186.769C184.987 89.9034 183.043 89.9844 181.098 90.0654H180.207L180.936 89.6604C182.152 89.0123 183.448 88.2832 184.744 87.5541H184.825H184.906C186.364 87.5541 187.903 87.6351 189.442 87.7972C189.847 87.8782 190.252 87.8782 190.738 87.9592C191.143 88.0402 191.548 88.0402 191.872 87.9592C192.602 87.7972 193.25 87.1491 193.574 86.501L193.736 86.8251C193.088 86.7441 192.44 86.582 191.791 86.501L191.062 86.339L191.71 86.096C192.116 85.934 192.359 85.691 192.521 85.3669C192.683 85.0429 192.683 84.6378 192.602 84.3138L192.764 84.4758C191.872 84.3948 190.9 84.3948 190.009 84.3138L189.28 84.2328L189.928 83.9088C190.252 83.7468 190.495 83.5037 190.657 83.2607C190.819 83.0177 190.819 82.6126 190.819 82.3696L190.981 82.5316C188.227 82.2076 185.635 81.9646 183.205 81.6405H183.286C180.936 82.2076 178.83 82.6937 176.886 83.0987L176.967 83.0177C174.78 85.772 172.998 87.9592 171.701 89.4983C171.134 90.2274 170.648 90.7945 170.243 91.1995C170.081 91.3615 170 91.5235 169.838 91.6045C169.757 91.6856 169.676 91.7666 169.676 91.7666C169.676 91.7666 169.676 91.6856 169.757 91.6045C169.838 91.4425 170 91.3615 170.081 91.1185C170.405 90.7135 170.891 90.0654 171.458 89.3363C172.674 87.7972 174.456 85.5289 176.562 82.7747H176.643C178.587 82.2886 180.693 81.8026 183.043 81.2355C185.473 81.4785 188.065 81.8026 190.819 82.0456H190.981V82.2076C191.062 82.6127 190.981 83.0177 190.819 83.4227C190.657 83.8278 190.333 84.0708 189.928 84.2328L189.847 83.8278C190.738 83.9088 191.629 83.9088 192.602 83.9898H192.764L192.845 84.1518C193.007 84.6378 193.007 85.1239 192.764 85.5289C192.521 85.934 192.116 86.258 191.71 86.42L191.629 86.015C192.278 86.096 192.926 86.258 193.574 86.339L193.817 86.42L193.736 86.6631C193.331 87.4731 192.683 88.1212 191.791 88.3642C191.386 88.4452 190.9 88.4452 190.495 88.3642C190.09 88.2832 189.685 88.2022 189.28 88.2022C187.741 88.0402 186.202 87.9592 184.825 87.9592H184.906C183.61 88.6883 182.314 89.4173 181.098 90.0654L181.017 89.6604C182.962 89.5793 184.906 89.4983 186.688 89.4173C188.146 89.6604 189.523 89.9844 190.819 90.2274H190.9V90.3084C191.062 90.6325 191.143 90.8755 191.062 91.1995C190.981 91.5235 190.657 91.8476 190.414 91.8476C189.847 91.9286 189.361 91.9286 188.794 91.9286C187.741 91.9286 186.769 91.8476 185.878 91.7666H185.959C183.934 92.2526 182.152 92.7387 180.531 93.1437L180.612 93.0627C180.126 94.5208 179.64 95.736 179.073 96.8701C178.911 97.1131 178.749 97.4371 178.506 97.5991C178.263 97.7612 178.02 97.9232 177.777 98.0042C177.291 98.2472 176.886 98.3282 176.481 98.4902C175.671 98.7333 175.104 98.8953 174.618 99.0573C174.456 99.1383 174.294 99.1383 174.132 99.1383C174.213 99.2193 174.132 99.2193 174.132 99.2193Z" fill="#AA6550"/>
<path d="M122.529 95.2499C122.529 95.2499 122.691 95.2499 122.934 95.1689C123.258 95.1689 123.583 95.0879 124.069 95.0879C125.122 95.0069 126.499 95.0069 128.2 94.9258C131.764 94.7638 136.706 94.6018 142.376 94.3588L142.214 94.5208C142.295 92.4956 142.214 90.3894 142.133 88.2022C141.971 84.6378 141.647 81.1545 141.404 78.0762C141.323 76.537 141.242 74.9979 141.161 73.6207C140.999 72.2436 140.837 70.9475 140.594 69.8133C140.027 67.5451 139.136 65.8439 138.407 64.7908C137.678 63.7377 137.03 63.2517 137.111 63.2517C137.111 63.2517 137.273 63.3327 137.516 63.5757C137.759 63.8187 138.164 64.2238 138.569 64.7098C139.379 65.7629 140.351 67.4641 140.918 69.8133C141.242 70.9475 141.404 72.2436 141.566 73.6207C141.728 74.9979 141.728 76.456 141.89 78.0762C142.133 81.1545 142.457 84.6378 142.619 88.2022C142.7 90.3894 142.781 92.4956 142.7 94.5208V94.6828H142.538C136.868 94.8448 131.926 95.0069 128.362 95.0879C126.661 95.0879 125.203 95.1689 124.231 95.1689C123.745 95.1689 123.421 95.1689 123.096 95.1689C122.691 95.2499 122.529 95.2499 122.529 95.2499Z" fill="#263238"/>
<path d="M138.893 121.335C138.893 121.335 128.524 135.43 128.524 141.101C128.524 146.771 128.767 155.196 135.491 161.272C142.215 167.347 224.519 238.391 224.519 238.391L244.609 220.731L170.001 145.394C170.001 145.394 173.484 139.075 171.945 136.483C170.406 133.891 168.056 133 168.056 133L167.813 119.066L138.893 121.335Z" fill="#263238"/>
<path d="M175.428 118.499L177.21 133.405C177.21 133.405 230.189 160.866 234.483 168.967C236.427 172.613 238.29 205.907 238.29 205.907L212.206 206.474L208.803 180.146L194.789 172.532L169.676 147.095L161.171 119.633L175.428 118.499Z" fill="#263238"/>
<path d="M151.531 120.767C151.531 120.767 151.612 121.091 151.774 121.659C151.855 122.226 152.017 123.117 152.098 124.17C152.179 125.223 152.098 126.519 151.855 127.896C151.612 129.273 151.045 130.731 150.072 132.109C149.1 133.405 147.885 134.458 146.589 135.106C145.293 135.673 143.997 135.835 142.944 135.754C141.891 135.673 141.081 135.349 140.513 135.106C140.27 134.944 140.027 134.863 139.946 134.782C139.784 134.701 139.784 134.62 139.784 134.62C139.784 134.539 140.919 135.43 142.944 135.511C143.997 135.511 145.212 135.349 146.427 134.782C147.642 134.215 148.776 133.243 149.748 131.947C151.612 129.354 151.855 126.357 151.855 124.332C151.774 122.064 151.45 120.767 151.531 120.767Z" fill="#263238"/>
<path d="M171.864 130.893C171.864 130.893 171.378 131.38 170.487 131.947C169.595 132.514 168.218 133.162 166.679 133.648C165.059 134.134 163.601 134.296 162.548 134.296C161.495 134.296 160.847 134.215 160.847 134.134C160.847 133.972 163.52 134.215 166.598 133.243C169.676 132.352 171.783 130.731 171.864 130.893Z" fill="#455A64"/>
<path d="M170.244 120.929C170.244 120.929 170.73 120.767 171.378 121.253C171.702 121.497 171.945 121.902 171.945 122.469C171.945 122.955 171.621 123.603 171.054 123.846C170.487 124.089 169.839 123.846 169.433 123.522C169.028 123.117 169.028 122.55 169.271 122.226C169.433 121.902 169.757 121.659 169.92 121.659C170.163 121.578 170.244 121.659 170.244 121.659C170.244 121.74 169.757 121.821 169.514 122.388C169.433 122.712 169.433 123.036 169.676 123.36C169.92 123.603 170.406 123.765 170.811 123.603C171.216 123.441 171.459 122.955 171.459 122.631C171.459 122.226 171.297 121.902 171.054 121.659C170.73 120.929 170.244 121.01 170.244 120.929Z" fill="#455A64"/>
<path d="M171.945 148.31C171.864 148.391 171.296 147.743 170.162 146.852C169.109 145.961 167.57 144.746 165.869 143.531C164.087 142.316 162.386 141.425 161.17 140.857C159.874 140.29 159.145 139.966 159.145 139.885C159.145 139.804 160.036 140.047 161.332 140.614C162.629 141.182 164.411 141.992 166.193 143.207C167.975 144.422 169.433 145.637 170.486 146.609C171.458 147.581 172.026 148.31 171.945 148.31Z" fill="#455A64"/>
<path d="M175.347 138.346C175.266 138.346 175.185 137.05 175.914 135.673C176.562 134.296 177.615 133.486 177.696 133.567C177.777 133.648 176.886 134.539 176.319 135.835C175.59 137.131 175.428 138.346 175.347 138.346Z" fill="#455A64"/>
<path d="M234.807 242.361C234.726 242.361 234.24 241.875 233.43 240.983C232.62 240.092 231.486 238.796 230.351 237.419C230.027 237.095 229.784 236.69 229.46 236.528C229.136 236.285 228.731 236.285 228.407 236.285C227.678 236.366 227.03 236.771 226.544 237.095C225.572 237.824 224.762 238.067 224.762 237.986C224.762 237.905 225.41 237.581 226.382 236.852C226.868 236.528 227.516 236.042 228.407 235.961C228.812 235.88 229.298 235.961 229.784 236.204C230.189 236.447 230.513 236.852 230.837 237.176C232.053 238.634 233.106 239.93 233.835 240.821C234.402 241.713 234.888 242.361 234.807 242.361Z" fill="#455A64"/>
<path d="M224.519 238.391C224.519 238.391 224.6 238.31 224.843 238.067C225.086 237.824 225.41 237.5 225.896 237.095C226.787 236.285 228.164 235.07 229.865 233.531C233.349 230.452 238.29 225.997 244.447 220.569V220.812C234.483 210.93 221.197 197.644 206.616 183.063C196.733 173.18 187.498 163.945 179.397 155.844C178.425 154.872 177.372 153.819 176.4 152.847C175.914 152.361 175.428 151.875 174.942 151.389C174.456 150.902 173.97 150.416 173.484 150.011C172.512 149.12 171.459 148.31 170.972 147.014C170.729 146.447 170.648 145.718 170.81 145.07C170.972 144.422 171.215 143.936 171.378 143.369C171.783 142.235 172.026 141.101 172.188 140.047C172.35 138.994 172.35 137.86 171.945 136.888C171.459 135.997 170.81 135.187 170.081 134.539C169.352 133.891 168.623 133.324 167.813 133H167.732V132.919C167.651 128.706 167.651 125.304 167.651 123.036C167.651 121.902 167.651 121.01 167.651 120.443C167.651 120.119 167.651 119.957 167.651 119.795C167.651 119.633 167.651 119.552 167.651 119.552C167.651 119.552 167.651 119.633 167.651 119.795C167.651 119.957 167.651 120.2 167.651 120.443C167.651 121.092 167.732 121.902 167.732 123.036C167.813 125.385 167.894 128.706 167.975 132.919L167.894 132.838C168.704 133.243 169.514 133.729 170.243 134.458C170.972 135.106 171.621 135.916 172.107 136.888C172.512 137.941 172.512 139.075 172.35 140.128C172.188 141.263 171.945 142.397 171.54 143.531C171.377 144.098 171.134 144.665 170.972 145.232C170.81 145.799 170.891 146.366 171.134 146.933C171.54 148.067 172.593 148.877 173.565 149.768C174.051 150.173 174.537 150.659 175.023 151.146C175.509 151.632 175.995 152.118 176.481 152.604C177.453 153.576 178.425 154.548 179.478 155.601C187.579 163.702 196.814 172.937 206.697 182.739C221.278 197.32 234.564 210.605 244.447 220.569L244.528 220.65L244.366 220.731C238.209 226.159 233.106 230.533 229.622 233.612C227.921 235.151 226.544 236.285 225.572 237.095C225.086 237.5 224.762 237.743 224.519 237.986C224.681 238.31 224.519 238.391 224.519 238.391Z" fill="#455A64"/>
<path d="M236.265 239.444C236.184 239.525 234.969 237.905 233.835 235.718C232.7 233.531 232.133 231.668 232.214 231.587C232.295 231.506 233.105 233.369 234.24 235.475C235.374 237.662 236.427 239.363 236.265 239.444Z" fill="#455A64"/>
<path d="M241.449 235.718C241.368 235.799 239.748 234.503 238.128 232.478C236.508 230.452 235.617 228.508 235.698 228.427C235.779 228.346 236.832 230.209 238.452 232.154C239.991 234.26 241.53 235.637 241.449 235.718Z" fill="#455A64"/>
<path d="M244.69 232.154C244.609 232.235 243.394 230.695 242.017 228.832C240.558 226.969 239.343 225.43 239.505 225.349C239.586 225.268 240.964 226.645 242.422 228.508C243.799 230.452 244.771 232.073 244.69 232.154Z" fill="#455A64"/>
<path d="M248.092 226.159C248.011 226.24 246.796 225.511 245.338 224.539C243.88 223.567 242.827 222.676 242.827 222.595C242.908 222.514 244.123 223.243 245.581 224.215C247.039 225.187 248.173 226.078 248.092 226.159Z" fill="#455A64"/>
<path d="M200.379 178.931C200.46 179.012 196.895 182.334 192.359 186.303C187.823 190.272 184.096 193.432 184.015 193.351C183.934 193.27 187.499 189.948 192.035 185.979C196.571 182.01 200.298 178.85 200.379 178.931Z" fill="#455A64"/>
<path d="M199.731 180.308C199.812 180.308 199.407 180.956 198.759 181.929C198.111 182.901 197.138 184.116 196.004 185.412C194.789 186.708 193.655 187.761 192.764 188.49C191.873 189.219 191.306 189.624 191.225 189.543C191.144 189.462 193.331 187.68 195.68 185.088C198.03 182.577 199.569 180.227 199.731 180.308Z" fill="#455A64"/>
<path d="M153.07 122.145C153.07 122.145 153.07 122.388 152.989 122.793C152.908 123.198 152.665 123.846 152.341 124.575C152.017 125.304 151.612 126.114 150.964 127.005C150.397 127.896 149.587 128.787 148.776 129.597C147.885 130.407 146.913 131.055 146.022 131.623C145.131 132.109 144.24 132.514 143.511 132.757C142.782 133 142.134 133.162 141.729 133.243C141.324 133.324 141.081 133.324 141.081 133.324C141.081 133.243 142.053 133.081 143.43 132.514C144.159 132.271 144.969 131.785 145.86 131.299C146.751 130.731 147.642 130.083 148.533 129.273C149.425 128.463 150.154 127.572 150.721 126.762C151.288 125.952 151.774 125.142 152.098 124.413C152.746 123.036 152.989 122.145 153.07 122.145Z" fill="#455A64"/>
<path d="M215.689 170.101C215.77 170.182 213.502 171.884 211.477 174.719C209.451 177.554 208.641 180.308 208.56 180.227C208.479 180.227 208.641 179.498 209.046 178.445C209.451 177.392 210.18 175.934 211.153 174.476C212.206 173.018 213.259 171.884 214.15 171.155C215.041 170.425 215.689 170.101 215.689 170.101Z" fill="#455A64"/>
<path d="M221.036 173.099C221.036 173.261 218.2 173.747 214.879 175.124C211.558 176.501 209.127 178.202 209.046 178.121C209.046 178.04 209.613 177.635 210.586 176.906C211.558 176.258 213.016 175.448 214.717 174.719C216.418 173.99 217.957 173.585 219.172 173.342C220.307 173.099 221.036 173.018 221.036 173.099Z" fill="#455A64"/>
</svg>
